<?xml version="1.0" encoding="utf-8"?>
<!-- Generator: Adobe Illustrator 27.9.0, SVG Export Plug-In . SVG Version: 6.00 Build 0)  -->
<svg version="1.1" xmlns="http://www.w3.org/2000/svg" xmlns:xlink="http://www.w3.org/1999/xlink" x="0px" y="0px"
	 viewBox="0 0 595.28 841.89" style="enable-background:new 0 0 595.28 841.89;" xml:space="preserve">
<style type="text/css">
	.st0{display:none;}
	.st1{display:inline;}
	.st2{fill:#798E44;stroke:#FFFFFF;stroke-miterlimit:10;}
	.st3{fill:#FFFFFF;}
	.st4{fill:#8B3B29;stroke:#FFFFFF;stroke-miterlimit:10;}
	.st5{fill:#414954;stroke:#FFFFFF;stroke-miterlimit:10;}
</style>
<g id="first_x5F_pickup_x5F_delivery" class="st0">
	<g id="marker" transform="translate(6.3 7.6)" class="st1">
		<path id="Path_140_00000137099804968330052340000011662121895037070497_" class="st2" d="M448.43,388.56
			c-0.01-86.78-70.37-157.11-157.15-157.1c-86.78,0.01-157.11,70.37-157.1,157.15c0.01,70.46,46.92,132.29,114.77,151.28
			c6.84,1.88,12.68,6.37,16.25,12.51l24.65,42.7l24.15-41.82c3.66-6.29,9.7-10.85,16.75-12.64
			C400.04,522.66,448.42,460.13,448.43,388.56z"/>
	</g>
	<g id="deliver" transform="translate(28)" class="st1">
		<circle class="st2" cx="386.95" cy="237.9" r="70.48"/>
		<g id="Arrow_Left" transform="translate(32 11) rotate(-90)">
			<path id="Path_10" class="st3" d="M-226.9,387.84l5.98-5.98l-22.64-22.64h49.55v-8.54h-49.55l22.64-22.65l-5.98-5.98
				l-32.89,32.89L-226.9,387.84z"/>
		</g>
	</g>
	<g id="pickup" transform="translate(15 45) rotate(180)" class="st1">
		<circle class="st2" cx="-136.84" cy="-474.8" r="70.48"/>
		<g id="Arrow_Left-2" transform="translate(11 34) rotate(90)">
			<path id="Path_10-2" class="st3" d="M-508.8,114.95l-5.98,5.98l22.64,22.64h-49.55v8.54h49.55l-22.64,22.65l5.98,5.98
				l32.89-32.89L-508.8,114.95z"/>
		</g>
	</g>
</g>
<g id="first_x5F_pickup" class="st0">
	<g id="marker_00000140011073015812027370000010317891861653424550_" transform="translate(6.3 7.6)" class="st1">
		<path id="Path_140_00000079447158392461561150000002133661619863626943_" class="st2" d="M448.43,388.56
			c-0.01-86.78-70.37-157.11-157.15-157.1c-86.78,0.01-157.11,70.37-157.1,157.15c0.01,70.46,46.92,132.29,114.77,151.28
			c6.84,1.88,12.68,6.37,16.25,12.51l24.65,42.7l24.15-41.82c3.66-6.29,9.7-10.85,16.75-12.64
			C400.04,522.66,448.42,460.13,448.43,388.56z"/>
	</g>
	<g id="pickup_00000076576157946711783510000010898116618100804541_" transform="translate(15 45) rotate(180)" class="st1">
		<circle class="st2" cx="-136.84" cy="-474.8" r="70.48"/>
		<g id="Arrow_Left-2_00000148633122055889327380000007276955303466712466_" transform="translate(11 34) rotate(90)">
			<path id="Path_10-2_00000112613032792293978260000017779243114841154968_" class="st3" d="M-508.8,114.95l-5.98,5.98l22.64,22.64
				h-49.55v8.54h49.55l-22.64,22.65l5.98,5.98l32.89-32.89L-508.8,114.95z"/>
		</g>
	</g>
</g>
<g id="first_x5F_delivery" class="st0">
	<g id="marker_00000010271827484189847890000015075396666188103088_" transform="translate(6.3 7.6)" class="st1">
		<path id="Path_140_00000130643767326966614940000014671265763898339772_" class="st2" d="M448.43,388.56
			c-0.01-86.78-70.37-157.11-157.15-157.1c-86.78,0.01-157.11,70.37-157.1,157.15c0.01,70.46,46.92,132.29,114.77,151.28
			c6.84,1.88,12.68,6.37,16.25,12.51l24.65,42.7l24.15-41.82c3.66-6.29,9.7-10.85,16.75-12.64
			C400.04,522.66,448.42,460.13,448.43,388.56z"/>
	</g>
	<g id="deliver_00000062909475790102029050000011790599040787025854_" transform="translate(28)" class="st1">
		<circle class="st2" cx="386.95" cy="237.9" r="70.48"/>
		<g id="Arrow_Left_00000168825144534312422650000010821577053694166924_" transform="translate(32 11) rotate(-90)">
			<path id="Path_10_00000085234031761157308950000010168653484987051433_" class="st3" d="M-226.9,387.84l5.98-5.98l-22.64-22.64
				h49.55v-8.54h-49.55l22.64-22.65l-5.98-5.98l-32.89,32.89L-226.9,387.84z"/>
		</g>
	</g>
</g>
<g id="last_x5F_pickup_x5F_delivery_00000061468176904728067140000000620901623430063014_" class="st0">
	<g id="marker_00000144336146262220409640000000490084303837735819_" transform="translate(6.3 7.6)" class="st1">
		<path id="Path_140_00000168090635719451974760000007817659351620300160_" class="st4" d="M448.43,388.56
			c-0.01-86.78-70.37-157.11-157.15-157.1c-86.78,0.01-157.11,70.37-157.1,157.15c0.01,70.46,46.92,132.29,114.77,151.28
			c6.84,1.88,12.68,6.37,16.25,12.51l24.65,42.7l24.15-41.82c3.66-6.29,9.7-10.85,16.75-12.64
			C400.04,522.66,448.42,460.13,448.43,388.56z"/>
	</g>
	<g id="deliver_00000077283244570919341210000000532068022986547126_" transform="translate(28)" class="st1">
		<circle class="st4" cx="386.95" cy="237.9" r="70.48"/>
		<g id="Arrow_Left_00000165917129932796553410000015779653755877506464_" transform="translate(32 11) rotate(-90)">
			<path id="Path_10_00000132808996642439781390000012610100493990044313_" class="st3" d="M-226.9,387.84l5.98-5.98l-22.64-22.64
				h49.55v-8.54h-49.55l22.64-22.65l-5.98-5.98l-32.89,32.89L-226.9,387.84z"/>
		</g>
	</g>
	<g id="pickup_00000019644793416377786500000017987655970461050047_" transform="translate(15 45) rotate(180)" class="st1">
		<circle class="st4" cx="-136.84" cy="-474.8" r="70.48"/>
		<g id="Arrow_Left-2_00000158714391061860152630000013317706172378025906_" transform="translate(11 34) rotate(90)">
			<path id="Path_10-2_00000009567340801864853270000010132278703318236310_" class="st3" d="M-508.8,114.95l-5.98,5.98l22.64,22.64
				h-49.55v8.54h49.55l-22.64,22.65l5.98,5.98l32.89-32.89L-508.8,114.95z"/>
		</g>
	</g>
</g>
<g id="last_x5F_pickup" class="st0">
	<g id="marker_00000133509668304002669740000008396151152769620100_" transform="translate(6.3 7.6)" class="st1">
		<path id="Path_140_00000073000584186782707830000009738386484583712416_" class="st4" d="M448.43,388.56
			c-0.01-86.78-70.37-157.11-157.15-157.1c-86.78,0.01-157.11,70.37-157.1,157.15c0.01,70.46,46.92,132.29,114.77,151.28
			c6.84,1.88,12.68,6.37,16.25,12.51l24.65,42.7l24.15-41.82c3.66-6.29,9.7-10.85,16.75-12.64
			C400.04,522.66,448.42,460.13,448.43,388.56z"/>
	</g>
	<g id="pickup_00000120530795295461742870000013156186381010780830_" transform="translate(15 45) rotate(180)" class="st1">
		<circle class="st4" cx="-136.84" cy="-474.8" r="70.48"/>
		<g id="Arrow_Left-2_00000069377370422941458730000017154299025448273080_" transform="translate(11 34) rotate(90)">
			<path id="Path_10-2_00000024718254407487532140000007323001769726126238_" class="st3" d="M-508.8,114.95l-5.98,5.98l22.64,22.64
				h-49.55v8.54h49.55l-22.64,22.65l5.98,5.98l32.89-32.89L-508.8,114.95z"/>
		</g>
	</g>
</g>
<g id="last_x5F_delivery" class="st0">
	<g id="marker_00000170958876022469826620000018257285206863881879_" transform="translate(6.3 7.6)" class="st1">
		<path id="Path_140_00000068651097482003681010000006706488707846564993_" class="st4" d="M448.43,388.56
			c-0.01-86.78-70.37-157.11-157.15-157.1c-86.78,0.01-157.11,70.37-157.1,157.15c0.01,70.46,46.92,132.29,114.77,151.28
			c6.84,1.88,12.68,6.37,16.25,12.51l24.65,42.7l24.15-41.82c3.66-6.29,9.7-10.85,16.75-12.64
			C400.04,522.66,448.42,460.13,448.43,388.56z"/>
	</g>
	<g id="deliver_00000037667665383361257530000009723515276731743150_" transform="translate(28)" class="st1">
		<circle class="st4" cx="386.95" cy="237.9" r="70.48"/>
		<g id="Arrow_Left_00000055688539024401746750000013782422117785724049_" transform="translate(32 11) rotate(-90)">
			<path id="Path_10_00000153677365781887010970000011556786279232344987_" class="st3" d="M-226.9,387.84l5.98-5.98l-22.64-22.64
				h49.55v-8.54h-49.55l22.64-22.65l-5.98-5.98l-32.89,32.89L-226.9,387.84z"/>
		</g>
	</g>
</g>
<g id="pickup_x5F_delivery" class="st0">
	<g id="marker_00000118385252708099540090000003733080427829499784_" transform="translate(6.3 7.6)" class="st1">
		<path id="Path_140_00000036946654544678847400000001178591831170853780_" class="st5" d="M448.43,388.56
			c-0.01-86.78-70.37-157.11-157.15-157.1c-86.78,0.01-157.11,70.37-157.1,157.15c0.01,70.46,46.92,132.29,114.77,151.28
			c6.84,1.88,12.68,6.37,16.25,12.51l24.65,42.7l24.15-41.82c3.66-6.29,9.7-10.85,16.75-12.64
			C400.04,522.66,448.42,460.13,448.43,388.56z"/>
	</g>
	<g id="deliver_00000114050085429107796590000009456926741014664376_" transform="translate(28)" class="st1">
		<circle class="st5" cx="386.95" cy="237.9" r="70.48"/>
		<g id="Arrow_Left_00000108293903548443220750000015685332647036583096_" transform="translate(32 11) rotate(-90)">
			<path id="Path_10_00000121975366382203107210000014267318088548304570_" class="st3" d="M-226.9,387.84l5.98-5.98l-22.64-22.64
				h49.55v-8.54h-49.55l22.64-22.65l-5.98-5.98l-32.89,32.89L-226.9,387.84z"/>
		</g>
	</g>
	<g id="pickup_00000082340787504770736490000014239392835705566124_" transform="translate(15 45) rotate(180)" class="st1">
		<circle class="st5" cx="-136.84" cy="-474.8" r="70.48"/>
		<g id="Arrow_Left-2_00000081646367268007306470000017056507742846122136_" transform="translate(11 34) rotate(90)">
			<path id="Path_10-2_00000085937985382930355870000003277505277898581902_" class="st3" d="M-508.8,114.95l-5.98,5.98l22.64,22.64
				h-49.55v8.54h49.55l-22.64,22.65l5.98,5.98l32.89-32.89L-508.8,114.95z"/>
		</g>
	</g>
</g>
<g id="pickup_00000150089366217178540070000004687750740889526659_" class="st0">
	<g id="marker_00000151532379311059970630000011815920941152617906_" transform="translate(6.3 7.6)" class="st1">
		<path id="Path_140_00000097471726452968509560000015813382610986061238_" class="st5" d="M448.43,388.56
			c-0.01-86.78-70.37-157.11-157.15-157.1c-86.78,0.01-157.11,70.37-157.1,157.15c0.01,70.46,46.92,132.29,114.77,151.28
			c6.84,1.88,12.68,6.37,16.25,12.51l24.65,42.7l24.15-41.82c3.66-6.29,9.7-10.85,16.75-12.64
			C400.04,522.66,448.42,460.13,448.43,388.56z"/>
	</g>
	<g id="pickup_00000042700358439571981640000017912518637142065587_" transform="translate(15 45) rotate(180)" class="st1">
		<circle class="st5" cx="-136.84" cy="-474.8" r="70.48"/>
		<g id="Arrow_Left-2_00000096049949409884150540000017823686292876883120_" transform="translate(11 34) rotate(90)">
			<path id="Path_10-2_00000047745541847563639880000003897484725330598047_" class="st3" d="M-508.8,114.95l-5.98,5.98l22.64,22.64
				h-49.55v8.54h49.55l-22.64,22.65l5.98,5.98l32.89-32.89L-508.8,114.95z"/>
		</g>
	</g>
</g>
<g id="delivery">
	<g id="marker_00000014609805168924278530000002817156068821829274_" transform="translate(6.3 7.6)">
		<path id="Path_140_00000005986963179909051670000010671212228596712361_" class="st5" d="M448.43,388.56
			c-0.01-86.78-70.37-157.11-157.15-157.1c-86.78,0.01-157.11,70.37-157.1,157.15c0.01,70.46,46.92,132.29,114.77,151.28
			c6.84,1.88,12.68,6.37,16.25,12.51l24.65,42.7l24.15-41.82c3.66-6.29,9.7-10.85,16.75-12.64
			C400.04,522.66,448.42,460.13,448.43,388.56z"/>
	</g>
	<g id="deliver_00000164502172040557170380000000174981634974122144_" transform="translate(28)">
		<circle class="st5" cx="386.95" cy="237.9" r="70.48"/>
		<g id="Arrow_Left_00000130617760549724909750000002794455981793063869_" transform="translate(32 11) rotate(-90)">
			<path id="Path_10_00000125563489521257257920000001540584573685052596_" class="st3" d="M-226.9,387.84l5.98-5.98l-22.64-22.64
				h49.55v-8.54h-49.55l22.64-22.65l-5.98-5.98l-32.89,32.89L-226.9,387.84z"/>
		</g>
	</g>
</g>
</svg>
