<?xml version="1.0" encoding="utf-8"?>
<!-- Generator: Adobe Illustrator 27.9.0, SVG Export Plug-In . SVG Version: 6.00 Build 0)  -->
<svg version="1.1" xmlns="http://www.w3.org/2000/svg" xmlns:xlink="http://www.w3.org/1999/xlink" x="0px" y="0px"
	 viewBox="0 0 595.28 841.89" style="enable-background:new 0 0 595.28 841.89;" xml:space="preserve">
<style type="text/css">
	.st0{display:none;}
	.st1{display:inline;}
	.st2{fill:#FFFFFF;}
	.st3{display:inline;fill:#FFFFFF;}
	.st4{font-family:'ArialMT';}
	.st5{font-size:500px;}
</style>
<g id="Layer_1" class="st0">
	<rect x="35.64" y="103.44" class="st1" width="524" height="635"/>
</g>
<g id="garment" class="st0">
	<g class="st1">
		<path class="st2" d="M547.85,512.34c-0.6-0.4-2.16-0.75-2.81-1.03L310.94,407.82V374.2c44.53-5.36,66.52-34.73,66.52-72.51
			c0-41.82-29.43-73.37-69.09-73.37c-41.64,0-76.57,34.32-76.57,74.96c0,6.99,5.79,12.67,12.78,12.67c2.08,0,4.02-0.62,5.74-1.5
			c4.1-2.1,7.01-6.25,7.01-11.17c0-26.43,24.07-49.62,51.48-49.62c25.62,0,44.22,20.21,44.22,48.04c0,27.39-22.13,48.04-52.3,48.04
			c-6.99,0-12.06,5.68-12.06,12.67v24.76v24.86c0,0.24-0.49,0.45-0.47,0.69L63.76,518.8c-33.1,11.92-44.43,39.05-40.81,59.76
			c3.72,21.3,21.78,35.01,45.17,35.01H513.9c27.69,0,49.41-14.33,56.68-38.35C577.75,551.55,568.4,526.03,547.85,512.34z
			 M546.33,569.42c-4.02,13.3-15.84,21.89-32.42,21.89H68.11c-11.32,0-18.75-6.28-20.37-15.56c-1.85-10.6,4.97-25.65,25.42-33.09
			l232.29-110.11l229.17,102.04C545.38,542.27,550.19,556.66,546.33,569.42z"/>
	</g>
</g>
<g id="flower" class="st0">
	<path id="Path_50" class="st3" d="M270.04,655.9l27.63,3.03C283.75,547.21,194.99,459.64,83.1,447.21l-23.54-2.63l0.5,4.09
		c13.66,109.26,100.46,194.89,209.89,207.07L270.04,655.9z M535.22,448.83l0.5-4.09l-23.54,2.63
		c-111.88,12.42-200.64,99.96-214.59,211.66l27.63-3.03c109.44-12.17,196.25-97.81,209.91-207.07L535.22,448.83z M442.03,266.18
		c-16.44-28.44-52.8-38.19-81.26-21.79c-1.47,0.88-2.65,1.9-4,2.84c0.1-1.66,0.5-3.22,0.5-4.88c0-32.85-26.63-59.49-59.48-59.49
		c-32.85,0-59.49,26.63-59.49,59.49c0,1.66,0.4,3.22,0.5,4.88c-1.27-1.03-2.61-1.98-4-2.84c-28.59-16.24-64.93-6.24-81.17,22.35
		c-16.1,28.33-6.43,64.34,21.7,80.8c1.46,0.77,2.96,1.45,4.49,2.06c-1.53,0.6-3.03,1.29-4.49,2.06
		c-28.48,16.45-38.24,52.87-21.79,81.36c16.45,28.48,52.87,38.24,81.36,21.79c1.47-0.88,2.63-1.9,4-2.84
		c-0.1,1.66-0.5,3.22-0.5,4.88c0,32.85,26.63,59.49,59.49,59.49c32.85,0,59.48-26.63,59.48-59.49l0,0c0-1.66-0.4-3.22-0.5-4.88
		c1.27,1.03,2.6,1.98,4,2.84c28.59,16.24,64.93,6.24,81.17-22.35c16.1-28.33,6.43-64.34-21.7-80.8c-1.46-0.77-2.96-1.45-4.49-2.06
		c1.53-0.6,3.03-1.29,4.49-2.06c28.44-16.44,38.19-52.8,21.79-81.26l0,0L442.03,266.18z M297.68,420.89
		c-39.43,0-71.4-31.97-71.4-71.4s31.97-71.4,71.4-71.4c39.43,0,71.4,31.97,71.4,71.4c0.03,39.41-31.89,71.39-71.3,71.42
		c-0.02,0-0.05,0-0.08,0L297.68,420.89z"/>
</g>
<g id="box" class="st0">
	<path id="Path_49_00000139976604725929986020000004720575554080960896_" class="st3" d="M145.93,248.05
		c7.1-14.23,21.64-23.23,37.55-23.22h100.06v112.03H101.49L145.93,248.05z M311.66,336.86V224.83h100.06
		c15.93,0,30.5,8.98,37.64,23.22l44.36,88.81H311.66z M493.79,561.01c-0.03,30.95-25.12,56.03-56.07,56.05H157.55
		c-30.94-0.03-56.02-25.11-56.05-56.05V364.89h392.15v196.12H493.79z"/>
</g>
<g id="letter">
	<path class="st2" d="M554.92,275.67c-5.17-6.63-11.47-12.36-18.59-16.91c-11.46-7.32-25.08-11.57-39.67-11.57H98.62
		c-14.59,0-28.21,4.25-39.67,11.57c-7.12,4.55-13.42,10.28-18.59,16.91c-9.82,12.55-15.68,28.33-15.68,45.46v199.63
		c0,14.29,4.08,27.64,11.14,38.97c4.39,7.06,9.93,13.33,16.38,18.53c12.69,10.28,28.85,16.44,46.42,16.44h398.04
		c17.57,0,33.73-6.16,46.42-16.44c6.44-5.2,11.99-11.47,16.38-18.53c7.06-11.32,11.14-24.67,11.14-38.97V321.13
		C570.6,304,564.74,288.21,554.92,275.67z M98.62,271.84h398.04c6.2,0,12.14,1.15,17.61,3.25l-169.6,125.6l-20.7,15.33l-13.85,10.25
		c-6.53,4.84-18.41,4.84-24.94,0l-13.85-10.25l-20.7-15.33L81,275.09C86.47,272.98,92.41,271.84,98.62,271.84z M49.33,520.76V321.13
		c0-11.65,4.05-22.35,10.83-30.8L229.9,416.02L55.7,545C51.64,537.84,49.33,529.57,49.33,520.76z M496.66,570.06H98.62
		c-9.38,0-18.15-2.62-25.62-7.2l177.6-131.51l19.9,14.74c7.6,5.63,17.38,8.44,27.14,8.44c9.76,0,19.53-2.81,27.14-8.44l19.9-14.74
		l177.6,131.51C514.81,567.43,506.03,570.06,496.66,570.06z M545.95,520.76c0,8.81-2.32,17.08-6.37,24.24l-174.2-128.99
		l169.74-125.68c6.78,8.44,10.83,19.15,10.83,30.8V520.76z"/>
</g>
<g id="bag" class="st0">
	<path id="Path_48_00000002367744128876780390000005199050596622421655_" class="st3" d="M187.89,279.62
		c0-60.69,49.2-109.89,109.89-109.89c60.69,0,109.89,49.2,109.89,109.89v47.08h62.85c26,0.01,47.07,21.08,47.08,47.08v204.14
		c0,52.05-42.2,94.25-94.25,94.25l0,0H171.94c-52.05,0-94.25-42.2-94.25-94.25l0,0V373.77c0.01-25.99,21.07-47.06,47.06-47.08h62.85
		v-47.08H187.89z M234.96,326.69h125.69v-47.08c0-34.71-28.14-62.85-62.85-62.85c-34.71,0-62.85,28.14-62.85,62.85V326.69z
		 M211.42,420.94c13,0,23.54-10.54,23.54-23.54c0-13-10.54-23.54-23.54-23.54c-13,0-23.54,10.54-23.54,23.54l0,0
		c-0.03,12.97,10.46,23.51,23.42,23.54C211.35,420.94,211.39,420.94,211.42,420.94z M384.21,373.87c-13,0-23.54,10.54-23.54,23.54
		c0,13,10.54,23.54,23.54,23.54c13,0,23.54-10.54,23.54-23.54l0,0c0.02-12.97-10.47-23.5-23.44-23.52c-0.03,0-0.06,0-0.1,0V373.87z"
		/>
</g>
<g id="other" class="st0">
	<text transform="matrix(1 0 0 1 158.5999 554.3066)" class="st3 st4 st5">?</text>
</g>
</svg>
