<?xml version="1.0" encoding="utf-8"?>
<!-- Generator: Adobe Illustrator 27.9.0, SVG Export Plug-In . SVG Version: 6.00 Build 0)  -->
<svg version="1.1" id="Layer_1" xmlns="http://www.w3.org/2000/svg" xmlns:xlink="http://www.w3.org/1999/xlink" x="0px" y="0px"
	 viewBox="0 0 841.89 595.28" style="enable-background:new 0 0 841.89 595.28;" xml:space="preserve">
<style type="text/css">
	.st0{fill:#F89521;}
	.st1{fill:#808185;}
	.st2{fill:#FDF4F9;}
	.st3{fill:none;stroke:#231F20;stroke-miterlimit:10;}
	.st4{fill:#231F20;}
	.st5{fill:#FFFFFF;}
	.st6{fill:#2D358E;}
	.st7{fill:none;stroke:#FFFFFF;stroke-miterlimit:10;}
	.st8{font-family:'Poppins-Regular';}
	.st9{font-size:106.8326px;}
	.st10{fill:none;stroke:#FFFFFF;}
</style>
<g id="Group_39" transform="translate(-52 -214.333)">
	<g id="logo_load" transform="translate(163.592 214.333)">
		<path id="Path_1" class="st0" d="M508.49,214.03h-30.02c-8.81,0-15.96-7.15-15.96-15.96l0,0v-30.02c0-8.81,7.15-15.96,15.96-15.96
			l0,0h30.02c8.81,0,15.96,7.15,15.96,15.96l0,0v30.02c0,8.81-7.13,15.96-15.94,15.96C508.51,214.03,508.5,214.03,508.49,214.03z"/>
		<path id="Path_2" class="st1" d="M590.74,160.77c0-19.32,9.73-26.76,21.75-26.76s21.75,10.71,21.75,23.94h1.85v2.83h-45.34V160.77
			z"/>
		<path id="Path_3" class="st1" d="M532.59,215.18l51.62,7.5l-12.6,6.75h-14.92l-13.04,22.21c-0.52,0.77-0.84,1.66-0.92,2.59
			c0,1.26,1.41,1.81,1.41,1.81h2.09"/>
		<path id="Path_4" class="st2" d="M594.19,160.77c0,0-0.17,15.02,17.88,15.02c18.05,0,16.9-15.02,16.9-15.02"/>
		<path id="Path_5" class="st1" d="M577.77,256.03c3.87-0.56,7.58-1.91,10.9-3.98c4.63-3.18,9.08-6.61,13.34-10.27
			c4.38-4.08,8.36-8.57,11.88-13.41c2.25-3.65,2.87-14.24,2.87-14.24v-27.5c0.75-1.29,1.63-2.49,2.65-3.58
			c1.16-1.34,2.68-2.32,4.39-2.81c1.47-0.42,3.05,0.11,3.98,1.32c0.7,0.91,0.99,2.07,0.8,3.2c-0.06,1.06-0.42,2.08-1.05,2.93
			c-0.34,0.34-0.78,0.57-1.26,0.65l7.73,35.96c0.63,3.46,2.1,6.72,4.28,9.47c4.26,4.07,17.32,13.42,18.62,14.66
			c1.74,1.8,2.65,4.25,2.51,6.75c0.28,2.77-0.02,5.56-0.88,8.2c-0.66,0.78-1.49,1.4-2.43,1.81h-179.7c-0.56,0-1.11-0.17-1.57-0.49
			c-0.98-0.69-2.56-1.98-2.59-3.33c0.09-2.68,0.96-5.27,2.51-7.45c1.86-2.88,17.04-19.09,17.04-19.09s1.69-2.05,1.7-3.08
			c0.1-1.49-0.3-2.97-1.15-4.19c-1.64-1.56-2.91-3.47-3.73-5.59c-0.26-0.88-1.03-6.75,3.54-6.84c4.57-0.09,40.44,0,40.44,0"/>
		<path id="Path_6" class="st3" d="M656.09,265.22"/>
		<path id="Path_7" class="st3" d="M607.91,265.22"/>
		<path id="Path_8" class="st3" d="M478.37,265.22"/>
		<path id="Path_9" class="st3" d="M525.58,265.22"/>
		<path id="Path_10" class="st3" d="M656.09,265.22"/>
		<path id="Path_11" class="st4" d="M608.72,265.22c0,0-6.08,23.67,17.82,23.67c23.17,0,29.54-23.67,29.54-23.67"/>
		<path id="Path_12" class="st5" d="M621.99,265.22c0,0-2.56,9.98,7.51,9.98c9.77,0,12.45-9.98,12.45-9.98"/>
		<path id="Path_13" class="st4" d="M525.58,265.22c0,0-5.85,19.99-22.71,22.19c-2.19,0.37-4.41,0.58-6.63,0.65
			c-2.4,0.02-4.79-0.26-7.12-0.82c-13.38-3.04-10.74-22.02-10.74-22.02"/>
		<path id="Path_14" class="st5" d="M512.14,264.95c0,0-2.44,8.34-9.46,9.24c-0.92,0.16-1.84,0.25-2.77,0.28
			c-1,0.01-1.99-0.11-2.97-0.34c-5.58-1.28-4.47-9.18-4.47-9.18"/>
		<path id="Path_15" class="st3" d="M619.39,183.06"/>
		<path id="Path_16" class="st6" d="M608.57,175.57c-0.45,2.12-6.53,5.93-6.53,5.93s-5.11,2.75-4.83,4.56s2.7,1.86,2.7,1.86
			l19.49-4.87l-1.74,2.34c-0.59,0.8-0.91,1.76-0.91,2.76v3.41l-23.08,8.13c-1.82,0.57-3.69,0.95-5.59,1.12
			c-0.97-0.07-1.92-0.29-2.83-0.65c-0.76-0.27-1.27-0.99-1.27-1.8l0.56-10.91c0,0-7.8,0.84-11.41,3.89c-2.13,2-3.5,4.69-3.86,7.59
			c-0.03,1.19,0.26,2.37,0.84,3.41c0.42,0.77,1.06,1.39,1.84,1.78c2.79,1.41,10.75,5.39,12.53,6.49c2.86,1.73,5.6,3.65,8.2,5.75
			c1.85,1.72,2.86,4.18,2.75,6.71c-0.05,2.51-2.56,3.75-3.58,4.94c-0.91,1.05-18.02,12.4-21.87,14.95
			c-0.56,0.37-0.99,0.91-1.24,1.53c-0.53,1.41-1.02,3.81,1.41,4.64c2.71,1.03,5.28,2.4,7.64,4.09c0.26,0.32,0.43,0.69,0.53,1.09
			c0.02,0.08,0.04,0.15,0.04,0.23c-0.03,0.54-0.23,1.06-0.56,1.5c0,0-30.93,0.04-31.56,0c-0.64-0.04-1.04-0.91-1.04-1.81
			c0.01-0.59,0.14-1.18,0.37-1.73c1.19-2.68,3.09-4.98,5.49-6.65c1.63-1.28,20.85-16.79,22.49-17.88c1.64-1.09,2.93-2.59,2.87-3.63
			c-0.06-1.04-1.74-2.42-3.91-3.14c-6.96-1.14-13.98-1.81-21.02-2.02c-5.82-0.11-11.59-1.1-17.11-2.93
			c-3.06-1.6-5.22-4.51-5.87-7.89c-0.32-2.59-0.17-5.52,7.33-14.53c7.5-9.01,24.86-17.32,35-21.65c7.83-3.05,15.92-5.4,24.16-7.01"
			/>
		<path id="Path_17" class="st3" d="M616.74,191.28"/>
		<path id="Path_18" class="st1" d="M571.6,229.41"/>
		<line id="Line_1" class="st7" x1="404.47" y1="259.42" x2="299.51" y2="259.42"/>
		<line id="Line_2" class="st7" x1="438" y1="269.79" x2="270.13" y2="269.79"/>
		<line id="Line_3" class="st7" x1="438" y1="278.79" x2="352" y2="278.79"/>
	</g>
	<text transform="matrix(1 0 0 1 122.8034 614.4883)" class="st5 st8 st9">DELIVERY BOT</text>
	<text transform="matrix(1 0 0 1 122.8034 614.4883)" class="st10 st8 st9">DELIVERY BOT</text>
</g>
</svg>
